<?xml version="1.0" encoding="UTF-8" standalone="no"?> <svg xmlns="http://www.w3.org/2000/svg" viewBox="0 0 64 64"><g id="outline"><path d="M61,21H43a1,1,0,0,0-1,1V39H40V25a3.984,3.984,0,0,0-1.619-3.195A2.972,2.972,0,0,0,39,20v-.78A2.985,2.985,0,0,0,40,17V13a4,4,0,0,0-4-4H32a4,4,0,0,0-4,4v2a1,1,0,0,0,.835.986L30,16.18V19a3.986,3.986,0,0,0,1.63,3.2,5.082,5.082,0,0,0-.6.595l-3.619,4.342-5.233,1.745L18.6,26.2A1,1,0,0,0,18,26H15a4,4,0,0,0,0,8h2.178l-5.757,9.047L7.96,43.03A5.972,5.972,0,0,0,2,49a1,1,0,0,0,1,1H4.11a7,7,0,1,0,9.78,0h1.36L17,52.333V54a3,3,0,0,0,3,3H36.322A7.309,7.309,0,0,0,43.4,62a7.211,7.211,0,0,0,7.39-7,6.653,6.653,0,0,0-.717-3H53a1,1,0,0,0,1-1V43a1,1,0,0,0-.485-.857L51.61,41H61a1,1,0,0,0,1-1V22A1,1,0,0,0,61,21ZM13,30a2,2,0,0,1,2-2v4A2,2,0,0,1,13,30Zm40-7v2H51V23ZM22.824,33.825l7.419-1.855a1,1,0,0,0,.464-.263L32,30.414V35H29a4,4,0,0,0-4,4v8.142a3.99,3.99,0,0,0-2.818,2.73l-2.13-5.008ZM26,49h3v2H24A2,2,0,0,1,26,49Zm3-9v7H27V39a2,2,0,0,1,2-2h9v2H30A1,1,0,0,0,29,40Zm1-27a2,2,0,0,1,2-2h4a2,2,0,0,1,2,2v4a1,1,0,0,1-2,0V16a1,1,0,0,0-.835-.986L30,14.153Zm4,8a2,2,0,0,1-2-2V16.514l2,.333V17a3,3,0,0,0,3,3,1,1,0,0,1-1,1H34Zm-5.684,7.949a1,1,0,0,0,.452-.309l3.8-4.56a2.992,2.992,0,0,1,2.3-1.08H36a2,2,0,0,1,2,2V35H34V28a1,1,0,0,0-1.707-.707l-2.8,2.8L23,31.719v-1ZM17,28h.667L21,30.5V32H17ZM14,55a5,5,0,1,1-5-5,4.953,4.953,0,0,1,1.574.278l-2.94,5.087,1.731,1,2.941-5.088A4.97,4.97,0,0,1,14,55ZM4.127,48A3.984,3.984,0,0,1,8,45.03l3.541.017L13.75,48Zm33.235,4H43v2a1,1,0,0,1-1,1H33.762ZM48.79,55a5.212,5.212,0,0,1-5.39,5,5.373,5.373,0,0,1-4.925-3H42a3,3,0,0,0,3-3V52h2.676A4.69,4.69,0,0,1,48.79,55ZM52,43.566V44H50v2h2v4H37a1,1,0,0,0-.64.232L30.638,55H20a1,1,0,0,1-1-1V52a1,1,0,0,0-.2-.6l-5.585-7.447L19.549,34h1.169L18.03,44.7a1,1,0,0,0,.05.635l3,7.055A1,1,0,0,0,22,53h8a1,1,0,0,0,1-1V46H41V44H31V41H47.723ZM60,39H44V23h5v3a1,1,0,0,0,1,1h4a1,1,0,0,0,1-1V23h5Z"/><rect x="43" y="44" width="5" height="2"/><path d="M48.445,31.168l-3,2,1.11,1.664L48,33.868V37h2V33.868l1.445.964,1.11-1.664-3-2A1,1,0,0,0,48.445,31.168Z"/><rect x="55" y="31" width="3" height="2"/><rect x="55" y="35" width="3" height="2"/></g></svg>
