<?xml version="1.0" encoding="iso-8859-1"?>
<!-- Uploaded to: SVG Repo, www.svgrepo.com, Generator: SVG Repo Mixer Tools -->
<svg height="800px" width="800px" version="1.1" id="Layer_1" xmlns="http://www.w3.org/2000/svg" xmlns:xlink="http://www.w3.org/1999/xlink" 
	 viewBox="0 0 511.999 511.999" xml:space="preserve">
<circle style="fill:#FF6464;" cx="232.183" cy="280.237" r="224.254"/>
<circle style="fill:#FFFFFF;" cx="232.183" cy="280.237" r="176.199"/>
<circle style="fill:#FF6464;" cx="232.183" cy="280.237" r="128.145"/>
<circle style="fill:#FFFFFF;" cx="232.183" cy="280.237" r="80.091"/>
<circle style="fill:#FF6464;" cx="231.862" cy="280.597" r="31.717"/>
<polygon style="fill:#D2555A;" points="356.091,155.864 404.145,155.774 504.07,55.473 456.016,55.564 455.925,7.51 356.001,107.81 
	"/>
<path d="M427.165,169.126c-3.668,1.935-5.073,6.476-3.139,10.144c16.225,30.763,24.836,65.536,24.902,100.559
	c0.224,119.514-96.823,216.928-216.338,217.153c-0.138,0-0.275,0-0.414,0c-119.323,0-216.513-96.962-216.738-216.336
	C15.214,161.132,112.263,63.718,231.776,63.494c0.134,0,0.268,0,0.403,0c34.898,0,69.565,8.482,100.277,24.538
	c3.672,1.921,8.211,0.5,10.132-3.176c1.921-3.675,0.5-8.211-3.176-10.132c-32.853-17.175-69.92-26.247-107.235-26.247
	c-0.142,0-0.289,0-0.431,0c-61.905,0.116-120.061,24.334-163.752,68.189C24.303,160.523,0.305,218.768,0.421,280.674
	s24.334,120.061,68.189,163.752c43.752,43.587,101.819,67.575,163.56,67.573c0.147,0,0.3,0,0.448,0
	c61.905-0.116,120.061-24.333,163.752-68.189c43.691-43.857,67.69-102.101,67.573-164.007
	c-0.071-37.446-9.281-74.632-26.636-107.538C435.375,168.598,430.834,167.192,427.165,169.126z"/>
<path d="M334.318,136.447c2.259-3.478,1.27-8.128-2.207-10.387c-29.755-19.323-64.298-29.529-99.923-29.529
	c-0.115,0-0.233,0-0.349,0c-101.297,0.19-183.553,82.756-183.362,184.052c0.19,101.185,82.557,183.372,183.702,183.362
	c0.111,0,0.239,0,0.351,0c49.07-0.092,95.168-19.288,129.8-54.05s53.655-80.932,53.563-130.001
	c-0.067-35.732-10.401-70.356-29.886-100.129c-2.271-3.471-6.925-4.442-10.394-2.17c-3.47,2.271-4.442,6.924-2.17,10.395
	c17.885,27.33,27.372,59.12,27.433,91.932c0.174,93.016-75.357,168.833-168.373,169.007c-0.107,0-0.214,0-0.322,0
	c-92.869,0-168.511-75.465-168.686-168.373c-0.175-93.016,75.357-168.833,168.373-169.007c0.108,0,0.213,0,0.321,0
	c32.713,0,64.432,9.371,91.744,27.107C327.41,140.913,332.06,139.924,334.318,136.447z"/>
<path d="M306.291,175.414c2.194-3.519,1.122-8.15-2.397-10.345c-21.483-13.403-46.274-20.483-71.708-20.483
	c-0.085,0-0.172,0-0.257,0c-74.8,0.141-135.538,61.108-135.398,135.908c0.14,74.717,60.962,135.405,135.649,135.398
	c0.082,0,0.177,0,0.259,0c74.8-0.141,135.538-61.108,135.398-135.908c-0.048-25.523-7.224-50.381-20.752-71.886
	c-2.207-3.51-6.843-4.566-10.354-2.358c-3.51,2.208-4.565,6.844-2.357,10.354c12.025,19.117,18.404,41.219,18.446,63.918
	c0.125,66.519-53.891,120.739-120.409,120.864c-0.077,0-0.153,0-0.23,0c-66.413,0-120.508-53.967-120.632-120.408
	c-0.125-66.519,53.891-120.739,120.409-120.864c0.078,0,0.151,0,0.229,0c22.62,0,44.664,6.294,63.76,18.208
	C299.464,180.005,304.096,178.93,306.291,175.414z"/>
<path d="M273.78,211.371c1.806-3.733,0.244-8.223-3.489-10.029c-11.935-5.776-24.753-8.702-38.101-8.702c-0.057,0-0.114,0-0.171,0
	c-48.302,0.091-87.525,39.461-87.434,87.762c0.044,23.399,9.197,45.38,25.773,61.894c16.537,16.475,38.485,25.542,61.821,25.541
	c0.056,0,0.113,0,0.169,0c48.303-0.091,87.525-39.462,87.434-87.763c-0.025-13.397-2.996-26.253-8.832-38.209
	c-1.818-3.728-6.315-5.274-10.04-3.455c-3.727,1.818-5.274,6.314-3.455,10.04c4.83,9.898,7.29,20.546,7.31,31.651
	c0.075,40.023-32.424,72.644-72.446,72.719c-0.047,0-0.093,0-0.14,0c-19.335,0-37.521-7.513-51.223-21.162
	c-13.735-13.683-21.318-31.896-21.355-51.284c-0.075-40.022,32.424-72.643,72.445-72.718c0.047,0,0.094,0,0.142,0
	c11.064,0,21.683,2.423,31.562,7.202C267.481,216.667,271.974,215.102,273.78,211.371z"/>
<path d="M227.003,256.258c4.055-0.87,6.636-4.862,5.766-8.917c-0.87-4.055-4.859-6.638-8.917-5.766
	c-18.121,3.889-31.247,20.181-31.212,38.737c0.041,21.782,17.771,39.471,39.544,39.471c0.024,0,0.051,0,0.075,0
	c18.704-0.034,34.972-13.347,38.683-31.656c0.824-4.065-1.803-8.026-5.868-8.85c-4.067-0.821-8.027,1.803-8.85,5.868
	c-2.3,11.348-12.39,19.599-23.992,19.621c-0.016,0-0.031,0-0.047,0c-13.503,0-24.502-10.972-24.527-24.482
	C207.634,268.773,215.771,258.669,227.003,256.258z"/>
<path d="M511.001,52.587c-1.166-2.8-3.9-4.622-6.932-4.622c-0.004,0-0.01,0-0.014,0l-40.546,0.077l-0.076-40.546
	c-0.006-3.037-1.84-5.773-4.648-6.929c-2.806-1.157-6.036-0.51-8.179,1.644l-99.925,100.301c-1.406,1.411-2.192,3.322-2.189,5.313
	l0.084,44.945L226.864,274.939c-2.926,2.937-2.917,7.692,0.02,10.618c1.466,1.46,3.382,2.189,5.299,2.189
	c1.926,0,3.852-0.737,5.319-2.209l121.712-122.169l44.944-0.084c1.991-0.004,3.899-0.799,5.305-2.21l99.925-100.301
	C511.533,58.621,512.168,55.39,511.001,52.587z M401.021,148.272l-26.817,0.05l63.149-63.388c2.926-2.937,2.917-7.692-0.02-10.618
	c-2.938-2.926-7.693-2.917-10.619,0.021l-63.149,63.387l-0.05-26.816l84.936-85.255l0.057,29.925l0,0l0,0
	c0.003,1.417,0.404,2.735,1.088,3.864c1.315,2.172,3.695,3.629,6.419,3.629l0,0c0.005,0,0.009,0,0.014,0l29.927-0.057
	L401.021,148.272z"/>
</svg>