<?xml version="1.0" encoding="utf-8"?>
<!-- Uploaded to: SVG Repo, www.svgrepo.com, Generator: SVG Repo Mixer Tools -->
<svg width="800px" height="800px" viewBox="0 0 64 64" xmlns="http://www.w3.org/2000/svg">
<title>car</title>
<g id="car">
<circle cx="38.5" cy="23.5" r="21.5" style="fill:#eaeaea"/>
<circle cx="55.5" cy="13.5" r="1.132" style="fill:#4c241d"/>
<polygon points="46 10 16 10 14 35 48 35 46 10" style="fill:#9dc1e4;stroke:#4c241d;stroke-linecap:round;stroke-linejoin:round;stroke-width:2px"/>
<path d="M42.868,24H19.132a1.38,1.38,0,0,0-1.354,1.11L16,34H46l-1.778-8.89A1.38,1.38,0,0,0,42.868,24Z" style="fill:#e66353;stroke:#4c241d;stroke-linecap:round;stroke-linejoin:round;stroke-width:2px"/>
<path d="M52.75,34H38.931a7.993,7.993,0,0,0-15.862,0H9.25A2.251,2.251,0,0,0,7,36.25V50H55V36.25A2.251,2.251,0,0,0,52.75,34Z" style="fill:#e66353;stroke:#4c241d;stroke-linecap:round;stroke-linejoin:round;stroke-width:2px"/>
<circle cx="17" cy="35" r="4" style="fill:#ffce56;stroke:#4c241d;stroke-linecap:round;stroke-linejoin:round;stroke-width:2px"/>
<circle cx="45" cy="35" r="4" style="fill:#ffce56;stroke:#4c241d;stroke-linecap:round;stroke-linejoin:round;stroke-width:2px"/>
<path d="M55,45v4H7V45H3v5H3a3,3,0,0,0,3,3H56a3,3,0,0,0,3-3h0V45Z" style="fill:#ffce56;stroke:#4c241d;stroke-linecap:round;stroke-linejoin:round;stroke-width:2px"/>
<path d="M9,53h7a0,0,0,0,1,0,0v4.483A2.517,2.517,0,0,1,13.483,60H11.517A2.517,2.517,0,0,1,9,57.483V53A0,0,0,0,1,9,53Z" style="fill:#6b4f5b;stroke:#4c241d;stroke-linecap:round;stroke-linejoin:round;stroke-width:2px"/>
<path d="M46,53h7a0,0,0,0,1,0,0v4.483A2.517,2.517,0,0,1,50.483,60H48.517A2.517,2.517,0,0,1,46,57.483V53A0,0,0,0,1,46,53Z" style="fill:#6b4f5b;stroke:#4c241d;stroke-linecap:round;stroke-linejoin:round;stroke-width:2px"/>
<path d="M31,36h0a4,4,0,0,1,4,4v9a0,0,0,0,1,0,0H27a0,0,0,0,1,0,0V40A4,4,0,0,1,31,36Z" style="fill:#6b4f5b;stroke:#4c241d;stroke-linecap:round;stroke-linejoin:round;stroke-width:2px"/>
<rect x="22" y="53" width="18" height="4" style="fill:#bf7e68;stroke:#4c241d;stroke-linecap:round;stroke-linejoin:round;stroke-width:2px"/>
<circle cx="23" cy="48" r="3" style="fill:#ffffff;stroke:#4c241d;stroke-linecap:round;stroke-linejoin:round;stroke-width:2px"/>
<circle cx="39" cy="48" r="3" style="fill:#ffffff;stroke:#4c241d;stroke-linecap:round;stroke-linejoin:round;stroke-width:2px"/>
<path d="M19,6H43a4,4,0,0,1,4,4v0a0,0,0,0,1,0,0H15a0,0,0,0,1,0,0v0a4,4,0,0,1,4-4Z" style="fill:#e66353;stroke:#4c241d;stroke-linecap:round;stroke-linejoin:round;stroke-width:2px"/>
<line x1="23" y1="13" x2="19.5" y2="16.5" style="fill:none;stroke:#ffffff;stroke-linecap:round;stroke-linejoin:round;stroke-width:2px"/>
<line x1="27" y1="13" x2="20" y2="20" style="fill:none;stroke:#ffffff;stroke-linecap:round;stroke-linejoin:round;stroke-width:2px"/>
<line x1="49" y1="33" x2="54" y2="28" style="fill:none;stroke:#4c241d;stroke-linecap:round;stroke-linejoin:round;stroke-width:2px"/>
<circle cx="56" cy="26" r="2" style="fill:#e66353;stroke:#4c241d;stroke-linecap:round;stroke-linejoin:round;stroke-width:2px"/>
<line x1="13" y1="33" x2="8" y2="28" style="fill:none;stroke:#4c241d;stroke-linecap:round;stroke-linejoin:round;stroke-width:2px"/>
<circle cx="6" cy="26" r="2" style="fill:#e66353;stroke:#4c241d;stroke-linecap:round;stroke-linejoin:round;stroke-width:2px"/>
</g>
</svg>