<?xml version="1.0" encoding="iso-8859-1"?>
<!-- Uploaded to: SVG Repo, www.svgrepo.com, Generator: SVG Repo Mixer Tools -->
<svg version="1.1" id="Layer_1" xmlns="http://www.w3.org/2000/svg" xmlns:xlink="http://www.w3.org/1999/xlink" 
	 viewBox="0 0 511.998 511.998" xml:space="preserve">
<path style="fill:#4A6F93;" d="M335.879,321.992H234.592c-36.683,0-66.422,29.738-66.422,66.422v97.498H402.3v-97.498
	C402.301,351.73,372.562,321.992,335.879,321.992z"/>
<polyline style="fill:#F95428;" points="327.124,295.099 327.124,415.688 243.352,415.688 243.352,295.099 "/>
<path style="fill:#3D5F7A;" d="M275.517,321.992h-40.926c-36.683,0-66.422,29.738-66.422,66.422v97.498h40.926v-97.498
	C209.095,351.73,238.834,321.992,275.517,321.992z"/>
<g>
	<path style="fill:#E0B394;" d="M172.021,231.208c-13.317-0.591-23.918-11.578-23.918-25.035c0-13.833,11.212-25.056,25.056-25.056
		c1.246,0,2.47,0.086,3.673,0.268"/>
	<path style="fill:#E0B394;" d="M398.44,231.208c13.318-0.591,23.929-11.578,23.929-25.035c0-13.833-11.223-25.056-25.067-25.056
		c-1.246,0-2.481,0.097-3.673,0.268"/>
</g>
<path style="fill:#F7CBA4;" d="M248.984,339.514l-44.086-32.031c-23.297-16.926-35.9-44.917-33.131-73.58l7.647-79.13
	c5.267-54.5,51.065-96.086,105.818-96.086l0,0c54.753,0,100.551,41.586,105.818,96.086l7.647,79.13
	c2.77,28.664-9.833,56.653-33.13,73.58l-44.086,32.031C299.866,355.218,270.598,355.218,248.984,339.514z"/>
<path style="fill:#F9C573;" d="M368.145,98.452c12.587,15.648,20.846,35.001,22.908,56.32c-32.735,0-48.963-39.093-48.963-39.093
	C349.672,108.966,358.06,102.79,368.145,98.452z"/>
<path style="fill:#AF7C38;" d="M152.263,342.47c-4.21-10.133-15.838-14.935-25.971-10.725l0,0
	c-10.133,4.21-14.935,15.838-10.725,25.971l53.159,127.966l29.666-28.109"/>
<path style="fill:#E0B394;" d="M199.203,249.498c-0.741,12.533,3.34,24.863,11.417,34.475l46.077,56.621
	c2.406,2.868,5.134,5.273,8.087,7.196c-5.542-1.933-10.869-4.704-15.798-8.28l-44.087-32.026
	c-23.295-16.926-35.893-44.914-33.122-73.579l7.636-79.132c5.22-53.968,50.177-95.274,104.231-96.058
	c-33.294,0.805-70.994,32.188-72.959,65.61L199.203,249.498z"/>
<path style="fill:#F9C573;" d="M259.468,78.18c0,0,20.406-53.163,73.568-53.163s67.124,67.125,67.124,67.125
	c-55.848,0-70.883,48.33-104.177,61.218s-66.588-28.998-66.588-28.998c-54.774,0-53.034,62.055-53.034,62.055
	c-12.856-17.903-20.618-58.463-12.064-86.104c22.138-71.536,114.899-51.818,114.899-51.818"/>
<g>
	<path style="fill:#E2AF66;" d="M333.044,25.015c0,0-44.12,25.25-65.599,82.171c0,0-27.231-18.36,22.511-68.102
		C299.959,29.08,333.044,25.015,333.044,25.015z"/>
	<path style="fill:#E2AF66;" d="M176.37,186.415c-12.856-17.903-20.621-58.468-12.072-86.102
		c8.882-28.686,29.116-42.702,50.166-49.189c-18.795,14.413-18.537,39.759,14.939,73.236
		C174.63,124.359,176.37,186.415,176.37,186.415z"/>
</g>
<g>
	<rect x="168.175" y="431.797" style="fill:#E0B394;" width="45.462" height="54.118"/>
	<rect x="356.843" y="431.797" style="fill:#E0B394;" width="45.462" height="54.118"/>
</g>
<path style="fill:#E54728;" d="M213.633,403.144v28.654h-45.462v-47.256c0-14.553,5.23-27.892,13.919-38.234l0.215,0.172
	C201.797,358.713,213.633,380.118,213.633,403.144z"/>
<path style="fill:#F95428;" d="M356.839,403.144v28.654h45.462v-47.256c0-14.553-5.23-27.892-13.919-38.234l-0.215,0.172
	C368.674,358.713,356.839,380.118,356.839,403.144z"/>
<path style="fill:#C0E7F9;" d="M11.216,211.962c-1.233,2.047-2.466,4.094-3.699,6.141c35.828,21.583,65.623,51.867,86.622,88.041
	c2.066-1.2,4.134-2.399,6.2-3.599c15.913-9.237,20.22-30.319,9.151-45.019c-15.251-20.252-33.11-38.405-53.112-53.982
	C41.86,192.238,20.712,196.201,11.216,211.962z"/>
<path d="M237.963,205.825c-4.448,0-8.055,3.606-8.055,8.055v12.884c0,4.448,3.606,8.055,8.055,8.055s8.055-3.606,8.055-8.055V213.88
	C246.018,209.431,242.411,205.825,237.963,205.825z"/>
<path d="M309.473,177.039c-3.146,3.146-3.146,8.245,0,11.391c3.146,3.146,8.246,3.146,11.391,0c7.014-7.014,18.427-7.014,25.441,0
	c1.572,1.573,3.634,2.36,5.695,2.36s4.123-0.786,5.695-2.36c3.146-3.146,3.146-8.245,0-11.391
	C344.401,163.743,322.768,163.743,309.473,177.039z"/>
<path d="M213.851,177.039c-3.146,3.146-3.146,8.245,0,11.391s8.246,3.146,11.391,0c7.015-7.014,18.426-7.013,25.441,0
	c1.572,1.573,3.634,2.36,5.695,2.36c2.061,0,4.123-0.786,5.695-2.36c3.146-3.146,3.146-8.245,0-11.391
	C248.779,163.743,227.146,163.744,213.851,177.039z"/>
<path d="M333.585,205.825c-4.448,0-8.055,3.606-8.055,8.055v12.884c0,4.448,3.606,8.055,8.055,8.055
	c4.448,0,8.055-3.606,8.055-8.055V213.88C341.64,209.431,338.033,205.825,333.585,205.825z"/>
<path d="M225.423,478.393h-3.188v-74.714c0-22.705-10.044-43.709-27.275-57.851c2.058-1.736,4.251-3.345,6.607-4.777
	c3.803-2.309,5.013-7.262,2.705-11.065c-2.309-3.802-7.264-5.013-11.065-2.705c-20.382,12.375-32.551,33.979-32.551,57.793v101.374
	c0,4.448,3.606,8.055,8.055,8.055h56.711c4.448,0,8.055-3.606,8.055-8.055C233.478,481.999,229.872,478.393,225.423,478.393z
	 M206.126,403.679v20.601h-29.359v-39.206c0-9.787,2.72-19.073,7.647-27.042C198.12,369.135,206.126,385.726,206.126,403.679z
	 M176.767,440.39h29.359v38.003h-29.359V440.39z"/>
<path d="M402.842,466.166c-4.448,0-8.055,3.606-8.055,8.055v4.172h-29.363v-19.208c0-4.448-3.606-8.055-8.055-8.055
	c-4.448,0-8.055,3.606-8.055,8.055v19.208h-97.042c-4.448,0-8.055,3.606-8.055,8.055c0,4.448,3.606,8.055,8.055,8.055h150.569
	c4.448,0,8.055-3.606,8.055-8.055v-12.227C410.897,469.772,407.291,466.166,402.842,466.166z"/>
<path d="M298.124,194.011c-4.448,0-8.055,3.606-8.055,8.055v38.127c0,2.369-1.927,4.296-4.296,4.296
	c-2.369,0-4.296-1.927-4.296-4.296v-38.127c0-4.448-3.606-8.055-8.055-8.055c-4.448,0-8.055,3.606-8.055,8.055v38.127
	c0,11.252,9.154,20.406,20.406,20.406c11.252,0,20.406-9.154,20.406-20.406v-38.127
	C306.179,197.618,302.573,194.011,298.124,194.011z"/>
<path d="M163.978,238.382c-1.274,29.726,12.514,58.565,36.723,76.155l44.086,32.025c12.261,8.911,26.623,13.366,40.988,13.365
	c14.361-0.001,28.726-4.456,40.977-13.364l44.086-32.026c24.217-17.588,38.01-46.43,36.734-76.159
	c13.615-4.149,23.389-16.769,23.389-31.668c0-17.03-12.93-31.094-29.492-32.908l-1.862-19.268c-0.001-0.01-0.002-0.019-0.003-0.029
	c-0.002-0.017-0.004-0.033-0.005-0.05c-1.799-18.46-7.985-36.005-18.012-51.358c5.765-1.51,12.082-2.367,19.111-2.367
	c2.424,0,4.719-1.091,6.248-2.972c1.529-1.881,2.131-4.35,1.637-6.723c-0.154-0.74-3.893-18.332-14.617-36.086
	c-14.8-24.502-35.683-37.452-60.393-37.452c-21.258,0-40.641,7.876-56.541,22.875c-8.246-1.289-27.045-3.409-47.676-0.22
	c-37.218,5.753-62.191,25.918-72.216,58.315c-7.425,23.99-3.695,55.402,4.887,77.266c-12.515,4.73-21.44,16.831-21.44,30.981
	C140.585,221.613,150.362,234.236,163.978,238.382z M293.825,343.193V331.1c0-4.448-3.606-8.055-8.055-8.055
	s-8.055,3.606-8.055,8.055v12.092c-8.277-1.264-16.33-4.482-23.458-9.663l-5.271-3.829v-34.064c0-9.463,7.704-17.162,17.173-17.162
	h39.233c9.464,0,17.162,7.699,17.162,17.162V329.7l-5.274,3.831C310.156,338.712,302.103,341.93,293.825,343.193z M361.37,301.503
	l-22.706,16.494v-22.361c0-18.347-14.925-33.272-33.272-33.272h-39.233c-18.352,0-33.283,14.925-33.283,33.272v22.362
	l-22.706-16.494c-20.89-15.18-32.324-40.579-29.839-66.289l4.586-47.492l-0.021-0.002c0.032-0.324,0.064-0.649,0.056-0.981
	c-0.001-0.045-0.013-0.856,0.038-2.225c0.15-0.444,0.272-0.903,0.344-1.382c0.144-0.947,0.107-1.878-0.068-2.768
	c0.826-8.895,3.795-25.157,14.414-36.03c6.664-6.823,15.61-10.609,26.632-11.278c7.66,8.58,30.501,31.382,56.925,31.38
	c5.283,0,10.714-0.913,16.19-3.033c14.094-5.456,24.604-15.883,35.731-26.923c1.74-1.726,3.487-3.457,5.254-5.176
	c2.104,3.49,4.843,7.55,8.234,11.617c10.323,12.38,22.503,19.816,35.572,21.85l7,72.443
	C393.705,260.926,382.268,286.326,361.37,301.503z M414.851,206.71c0,6.404-3.521,11.978-8.764,14.878l-3-31.042
	C409.906,192.763,414.851,199.166,414.851,206.71z M382.021,145.775c-14.998-4.711-24.948-19.526-29.356-27.485
	c4.211-3.386,8.684-6.5,13.578-9.133C373.972,120.162,379.327,132.595,382.021,145.775z M172.529,103.225
	c8.156-26.355,27.965-42.198,58.875-47.091c7.166-1.134,14.15-1.535,20.443-1.535c4.54,0,8.72,0.208,12.344,0.499
	c-7.917,10.988-11.523,20.246-11.708,20.726c-1.592,4.147,0.477,8.79,4.619,10.391c4.141,1.6,8.802-0.462,10.413-4.601
	c0.048-0.124,4.926-12.477,15.712-24.535c0.668-0.746,1.342-1.476,2.023-2.187c0.188-0.177,0.368-0.363,0.539-0.557
	c13.43-13.76,29.489-20.732,47.78-20.732c18.913,0,34.521,9.865,46.39,29.32c4.924,8.072,8.205,16.253,10.218,22.239
	c-31.569,3.354-49.96,21.599-66.37,37.881c-9.897,9.821-19.246,19.096-30.2,23.336c-27.332,10.578-57.083-26.135-57.374-26.499
	c-1.528-1.922-3.849-3.043-6.305-3.043c-17.244,0-31.327,5.492-41.86,16.325c-7.37,7.579-11.925,16.755-14.734,25.377
	C168.755,141.002,167.513,119.435,172.529,103.225z M168.46,190.543l-2.999,31.049c-5.243-2.899-8.766-8.475-8.766-14.882
	C156.695,199.164,161.642,192.758,168.46,190.543z"/>
<path d="M298.981,288.371c-8.396,3.951-18.027,3.95-26.422,0c-4.025-1.895-8.825-0.166-10.717,3.859
	c-1.895,4.025-0.166,8.824,3.859,10.718c6.377,3.002,13.223,4.502,20.071,4.502c6.846,0,13.693-1.5,20.071-4.502
	c4.025-1.895,5.752-6.693,3.859-10.717C307.804,288.203,303.004,286.476,298.981,288.371z"/>
<path d="M480.316,396.894c-9.822,0-18.614,4.493-24.43,11.531l-11.69-24.161l25.19-52.061c1.937-4.005,0.262-8.822-3.742-10.759
	c-4.004-1.937-8.822-0.263-10.759,3.743l-19.638,40.585l-19.638-40.585c-1.936-4.005-6.755-5.68-10.759-3.743
	c-4.005,1.937-5.68,6.754-3.742,10.759l25.19,52.061l-11.69,24.161c-5.816-7.039-14.608-11.531-24.43-11.531
	c-17.47,0-31.683,14.213-31.683,31.683c0,17.47,14.213,31.683,31.683,31.683c16.802,0,30.584-13.148,31.614-29.695l13.455-27.807
	l13.455,27.807c1.03,16.547,14.812,29.695,31.614,29.695c17.47,0,31.683-14.213,31.683-31.683
	C511.998,411.107,497.785,396.894,480.316,396.894z M390.178,444.149c-8.587,0-15.573-6.986-15.573-15.573
	c0-8.587,6.986-15.573,15.573-15.573s15.573,6.986,15.573,15.573C405.751,437.163,398.764,444.149,390.178,444.149z
	 M480.316,444.149c-8.587,0-15.573-6.986-15.573-15.573c0-8.587,6.986-15.573,15.573-15.573c8.587,0,15.573,6.986,15.573,15.573
	C495.889,437.163,488.902,444.149,480.316,444.149z"/>
<path d="M129.919,339.721c6.016-2.499,12.943,0.361,15.443,6.377c1.707,4.108,6.419,6.055,10.529,4.348
	c4.108-1.707,6.054-6.421,4.348-10.529c-5.908-14.219-22.284-20.98-36.501-15.072c-3.898,1.62-7.231,4.03-9.901,6.963l-9.016-21.701
	l0.099-0.057c9.59-5.567,16.352-14.994,18.552-25.864c2.195-10.847-0.36-22.134-7.01-30.966
	c-15.674-20.813-34.043-39.483-54.597-55.492c-8.724-6.793-19.969-9.532-30.848-7.513c-10.904,2.023-20.44,8.632-26.161,18.129
	l-3.699,6.141c-2.295,3.811-1.068,8.761,2.743,11.056c34.433,20.743,63.317,50.054,83.566,84.778l21.202,51.027l32.142,77.36
	c1.287,3.098,4.283,4.967,7.442,4.966c1.03,0,2.077-0.199,3.088-0.619c4.108-1.707,6.055-6.421,4.348-10.529l-32.141-77.36
	C121.044,349.147,123.904,342.22,129.919,339.721z M19.055,216.013c3.381-5.21,8.77-8.823,14.899-9.96
	c6.356-1.18,12.92,0.419,18.011,4.383c19.437,15.138,36.807,32.792,51.628,52.473c3.881,5.154,5.372,11.744,4.09,18.08
	c-1.236,6.11-4.937,11.44-10.201,14.736C77.558,263.783,50.668,236.453,19.055,216.013z"/>
<path d="M335.716,416.225v-53.086c0-4.448-3.606-8.055-8.055-8.055c-4.448,0-8.055,3.606-8.055,8.055v45.031h-67.661v-45.031
	c0-4.448-3.606-8.055-8.055-8.055c-4.448,0-8.055,3.606-8.055,8.055v53.086c0,4.448,3.606,8.055,8.055,8.055h83.771
	C332.109,424.28,335.716,420.674,335.716,416.225z"/>
<path d="M350.203,392.165c-0.683,4.396,2.327,8.514,6.722,9.197c0.42,0.066,0.836,0.097,1.247,0.097c3.903,0,7.331-2.842,7.95-6.819
	c2.248-14.469,9.792-27.462,21.02-36.593c4.925,7.967,7.645,17.248,7.645,27.029c0,4.448,3.606,8.055,8.055,8.055
	c4.448,0,8.055-3.606,8.055-8.055c0-23.809-12.172-45.414-32.561-57.793c-3.802-2.309-8.757-1.098-11.065,2.705
	s-1.098,8.757,2.705,11.065c2.368,1.438,4.572,3.057,6.638,4.803C362.515,357.469,353.042,373.892,350.203,392.165z"/>
<path d="M18.419,176.261l10.507,3.323c0.808,0.256,1.626,0.377,2.432,0.377c3.42,0,6.592-2.194,7.678-5.628
	c1.341-4.241-1.01-8.768-5.251-10.109l-10.507-3.323c-4.242-1.342-8.768,1.01-10.109,5.251S14.177,174.92,18.419,176.261z"/>
<path d="M63.076,181.937c-1.341,4.241,1.01,8.768,5.251,10.109l10.507,3.323c0.808,0.256,1.626,0.377,2.432,0.377
	c3.42,0,6.592-2.194,7.678-5.628c1.341-4.241-1.01-8.768-5.251-10.109l-10.507-3.323C68.946,175.345,64.418,177.696,63.076,181.937z
	"/>
<path d="M54.857,166.115c0.808,0.256,1.626,0.377,2.432,0.377c3.42,0,6.592-2.194,7.678-5.628l3.323-10.507
	c1.341-4.241-1.01-8.768-5.251-10.109c-4.242-1.341-8.768,1.01-10.109,5.251l-3.323,10.507
	C48.265,160.247,50.616,164.774,54.857,166.115z"/>
</svg>