<?xml version="1.0" encoding="iso-8859-1"?>
<!-- Uploaded to: SVG Repo, www.svgrepo.com, Generator: SVG Repo Mixer Tools -->
<svg version="1.1" id="Layer_1" xmlns="http://www.w3.org/2000/svg" xmlns:xlink="http://www.w3.org/1999/xlink" 
	 viewBox="0 0 488 488" xml:space="preserve">
<ellipse style="fill:#F9FDFE;" cx="240" cy="257.12" rx="135.848" ry="135.816"/>
<path style="fill:#E7EDEF;" d="M120.304,279.816c0-75.008,60.808-135.816,135.824-135.816c40.76,0,77.24,18.04,102.152,46.472
	c-23.328-41.248-67.536-69.136-118.288-69.136c-75.008,0-135.816,60.808-135.816,135.816c0,34.272,12.792,65.488,33.728,89.384
	C126.744,326.816,120.304,304.088,120.304,279.816z"/>
<path style="fill:#132C47;" d="M239.984,400.976c-79.304,0-143.816-64.512-143.816-143.824s64.512-143.824,143.816-143.824
	c79.336,0,143.872,64.512,143.872,143.824S319.32,400.976,239.984,400.976z M239.984,129.336
	c-70.48,0-127.816,57.336-127.816,127.824s57.336,127.824,127.816,127.824c70.504,0,127.872-57.336,127.872-127.824
	S310.496,129.336,239.984,129.336z"/>
<circle style="fill:#F9FDFE;" cx="239.992" cy="257.2" r="88.56"/>
<path style="fill:#E7EDEF;" d="M168,279.464c0-48.896,39.64-88.536,88.536-88.536c24.12,0,45.952,9.672,61.92,25.312
	c-14.784-28.28-44.344-47.616-78.464-47.616c-48.896,0-88.536,39.64-88.536,88.536c0,24.784,10.208,47.16,26.616,63.224
	C171.672,308.136,168,294.24,168,279.464z"/>
<g>
	<path style="fill:#132C47;" d="M239.992,353.696c-53.232,0-96.536-43.312-96.536-96.536s43.312-96.536,96.536-96.536
		c53.232,0,96.536,43.304,96.536,96.536S293.224,353.696,239.992,353.696z M239.992,176.624c-44.408,0-80.536,36.128-80.536,80.536
		s36.128,80.536,80.536,80.536s80.536-36.128,80.536-80.536S284.4,176.624,239.992,176.624z"/>
	<path style="fill:#132C47;" d="M239.992,314.2c-31.44,0-57.008-25.592-57.008-57.048c0-4.416,3.584-8,8-8s8,3.584,8,8
		c0,22.632,18.4,41.048,41.008,41.048c22.632,0,41.048-18.416,41.048-41.048c0-4.416,3.576-8,8-8s8,3.584,8,8
		C297.04,288.616,271.448,314.2,239.992,314.2z"/>
</g>
<rect x="24" y="224" style="fill:#F9FDFE;" width="48" height="168"/>
<rect x="24" y="224" style="fill:#E7EDEF;" width="16" height="168"/>
<rect x="24" y="264" style="fill:#F85766;" width="48" height="32"/>
<rect x="24" y="264" style="fill:#BA414D;" width="16" height="32"/>
<path style="fill:#F85766;" d="M72,392v16c0,8.8-7.2,16-16,16H40c-8.8,0-16-7.2-16-16v-16H72z"/>
<path style="fill:#F97985;" d="M40,408v-16H24v16c0,8.8,7.2,16,16,16h16C47.2,424,40,416.8,40,408z"/>
<path style="fill:#F9FDFE;" d="M88,160v48c0,8.8-7.2,16-16,16H24c-8.8,0-16-7.2-16-16v-48H88z"/>
<path style="fill:#E7EDEF;" d="M24,208v-48H8v48c0,8.8,7.2,16,16,16h16C31.2,224,24,216.8,24,208z"/>
<rect x="408" y="216" style="fill:#F9FDFE;" width="48" height="176"/>
<rect x="408" y="216" style="fill:#E7EDEF;" width="16" height="176"/>
<rect x="408" y="264" style="fill:#F85766;" width="48" height="32"/>
<rect x="408" y="264" style="fill:#BA414D;" width="16" height="32"/>
<path style="fill:#F85766;" d="M456,392v16c0,8.8-7.2,16-16,16h-16c-8.8,0-16-7.2-16-16v-16H456z"/>
<path style="fill:#F97985;" d="M424,408v-16h-16v16c0,8.8,7.2,16,16,16h16C431.2,424,424,416.8,424,408z"/>
<ellipse style="fill:#F9FDFE;" cx="432" cy="144" rx="48" ry="80"/>
<path style="fill:#E7EDEF;" d="M400,144c0-39.608,17.328-72.432,40-78.8c-2.608-0.728-5.272-1.2-8-1.2c-26.48,0-48,35.84-48,80
	s21.52,80,48,80c2.728,0,5.392-0.472,8-1.2C417.328,216.432,400,183.608,400,144z"/>
<g>
	<path style="fill:#132C47;" d="M88,64c-4.416,0-8,3.584-8,8v80H56V72c0-4.416-3.584-8-8-8s-8,3.584-8,8v80H16V72
		c0-4.416-3.584-8-8-8s-8,3.584-8,8v136c0,10.416,6.712,19.216,16,22.528V408c0,13.232,10.768,24,24,24h16c13.232,0,24-10.768,24-24
		V230.528c9.288-3.312,16-12.112,16-22.528V72C96,67.584,92.416,64,88,64z M64,288H32v-16h32V288z M32,304h32v80H32V304z M64,256H32
		v-24h32V256z M64,408c0,4.408-3.592,8-8,8H40c-4.408,0-8-3.592-8-8v-8h32V408z M80,208c0,4.408-3.592,8-8,8H24
		c-4.408,0-8-3.592-8-8v-40h24v8c0,4.416,3.584,8,8,8s8-3.584,8-8v-8h24V208z"/>
	<path style="fill:#132C47;" d="M432,56c-31.4,0-56,38.656-56,88c0,30.496,9.408,56.872,24,72.608V408c0,13.232,10.768,24,24,24h16
		c13.232,0,24-10.768,24-24V216.608c14.592-15.728,24-42.104,24-72.608C488,94.656,463.4,56,432,56z M448,408c0,4.408-3.584,8-8,8
		h-16c-4.416,0-8-3.592-8-8v-8h32V408z M448,384h-32v-80h32V384z M448,288h-32v-16h32V288z M448,256h-32v-27.568
		c5.056,2.296,10.416,3.568,16,3.568s10.944-1.272,16-3.568V256z M449.936,208h-35.864C401.112,195.928,392,171.496,392,144
		c0-39.024,18.32-72,40-72s40,32.976,40,72C472,171.496,462.888,195.928,449.936,208z"/>
</g>
</svg>