<?xml version="1.0" ?>
<!-- Uploaded to: SVG Repo, www.svgrepo.com, Generator: SVG Repo Mixer Tools -->
<svg width="800px" height="800px" viewBox="0 0 120 120" id="Layer_1" version="1.1" xml:space="preserve" xmlns="http://www.w3.org/2000/svg" xmlns:xlink="http://www.w3.org/1999/xlink">
<style type="text/css">
	.st0{fill:#EA907A;}
	.st1{opacity:5.000000e-02;enable-background:new    ;}
	.st2{opacity:0.1;enable-background:new    ;}
	.st3{opacity:0.15;enable-background:new    ;}
	.st4{fill:#FFFFFF;}
	.st5{fill:#AACDBE;}
	.st6{fill:#FBC687;}
</style>
<g id="Bag_2">
<path class="st0" d="M77.1,25H35.2c-2.3,0-4.3,1.7-4.5,4.1l-5.8,50.7c-0.3,2.7,1.8,5.1,4.5,5.1H82c2.7,0,4.8-2.3,4.6-5l-4.9-50.8   C81.4,26.8,79.5,25,77.1,25z"/>
<path class="st1" d="M83.7,84H31.1c-2.7,0-4.8-2.4-4.5-5.1l5.8-50.7c0.1-1.2,0.6-2.2,1.4-2.9c-1.7,0.5-3,2-3.2,3.9l-5.8,50.7   c-0.3,2.7,1.8,5.1,4.5,5.1H82c1.2,0,2.2-0.5,3-1.2C84.6,83.9,84.2,84,83.7,84z"/>
<g>
<path class="st2" d="M56.4,64.5c-3.3,0-6.1-0.5-8.6-1.6c-2.9-1.2-5.4-3.3-6.8-5.7c-1.8-3.1-2.3-6.9-1.5-11.6    c0.3-1.6,0.6-3.2,0.9-4.7c0.5-2.1,0.9-4.2,1.2-6.3c0.1-0.5,0.6-1,1.1-0.9s0.9,0.6,0.9,1.1c-0.2,2.2-0.7,4.4-1.2,6.5    c-0.3,1.5-0.7,3-0.9,4.6c-0.7,4.2-0.3,7.6,1.3,10.2c1.2,2.1,3.3,3.8,5.8,4.9c2.3,1,4.8,1.4,7.8,1.4c2.2,0,4.9-0.2,7.2-1.6    c3-1.7,4.5-5,5.3-7.4c1.9-5.9,1.2-12.7-2-18.1c-0.3-0.5-0.1-1.1,0.4-1.4c0.5-0.3,1.1-0.1,1.4,0.4c3.5,5.9,4.3,13.2,2.2,19.7    c-0.9,2.8-2.6,6.5-6.1,8.6C61.9,64.3,58.8,64.5,56.4,64.5z"/>
</g>
<g>
<circle class="st3" cx="43.4" cy="33.8" r="2.3"/>
<circle class="st3" cx="68.1" cy="33.8" r="2.3"/>
</g>
<g>
<path class="st4" d="M57.2,63.5c-3.3,0-6.1-0.5-8.6-1.6c-2.9-1.2-5.4-3.3-6.8-5.7c-1.8-3.1-2.3-6.9-1.5-11.6    c0.3-1.6,0.6-3.2,0.9-4.7c0.5-2.1,0.9-4.2,1.2-6.3c0.1-0.5,0.6-1,1.1-0.9s0.9,0.6,0.9,1.1c-0.2,2.2-0.7,4.4-1.2,6.5    c-0.3,1.5-0.7,3-0.9,4.6c-0.7,4.2-0.3,7.6,1.3,10.2c1.2,2.1,3.3,3.8,5.8,4.9c2.3,1,4.8,1.4,7.8,1.4c2.2,0,4.9-0.2,7.2-1.6    c3-1.7,4.5-5,5.3-7.4c1.9-5.9,1.2-12.7-2-18.1c-0.3-0.5-0.1-1.1,0.4-1.4c0.5-0.3,1.1-0.1,1.4,0.4c3.5,5.9,4.3,13.2,2.2,19.7    c-0.9,2.8-2.6,6.5-6.1,8.6C62.7,63.3,59.6,63.5,57.2,63.5z"/>
</g>
</g>
<g id="Bag_3">
<path class="st5" d="M43.1,54.9l-27.3,0.4c-1.5,0-2.7,1.1-2.9,2.6L9.3,91.8c-0.2,1.7,1.1,3.2,2.9,3.2l34.2-3c1.7,0,3-1.5,2.9-3.2   L46,57.5C45.8,56,44.6,54.9,43.1,54.9z"/>
<path class="st1" d="M47.4,91.2l-34.2,3c-1.8,0-3.1-1.5-2.9-3.2l3.6-33.9c0.1-0.6,0.3-1.1,0.7-1.5c-0.9,0.4-1.5,1.3-1.7,2.3   L9.3,91.8c-0.2,1.7,1.1,3.2,2.9,3.2l34.2-3c0.9,0,1.7-0.4,2.2-1C48.2,91.1,47.8,91.2,47.4,91.2z"/>
<g>
<path class="st2" d="M30.5,80.6c-1.9-0.1-3.8-0.3-5.6-1.1c-1.8-0.8-3.4-2.1-4.4-3.8c-1.5-2.5-1.4-5.4-1-7.5    c0.2-0.9,0.3-1.8,0.5-2.6c0.3-1.4,0.6-2.8,0.7-4.2c0-0.5,0.5-1,1.1-0.9c0.5,0,1,0.5,0.9,1.1c-0.1,1.5-0.5,3-0.8,4.4    c-0.2,0.8-0.4,1.7-0.5,2.5c-0.3,1.7-0.4,4.2,0.8,6.1c0.8,1.3,2,2.4,3.4,3c1.5,0.7,3.2,0.8,4.9,0.9c1.9,0,3.2-0.3,4.2-0.9    c1.4-0.8,2.4-2.3,3.2-4.5c1.1-3.6,0.6-7.7-1.2-11.1c-0.3-0.5-0.1-1.1,0.4-1.4c0.5-0.3,1.1-0.1,1.4,0.4c2.1,3.8,2.6,8.6,1.4,12.7    c-0.9,2.6-2.3,4.5-4,5.6C34.1,80.4,32.1,80.6,30.5,80.6z"/>
</g>
<g>
<circle class="st3" cx="22.2" cy="61" r="1.4"/>
<circle class="st3" cx="37.8" cy="61" r="1.4"/>
</g>
<g>
<path class="st4" d="M30.9,80.1C29,80,27.1,79.8,25.3,79c-1.8-0.8-3.4-2.1-4.4-3.8c-1.5-2.5-1.4-5.4-1-7.5    c0.2-0.9,0.3-1.8,0.5-2.6c0.3-1.4,0.6-2.8,0.7-4.2c0-0.5,0.5-1,1.1-0.9c0.5,0,1,0.5,0.9,1.1c-0.1,1.5-0.5,3-0.8,4.4    c-0.2,0.8-0.4,1.7-0.5,2.5c-0.3,1.7-0.4,4.2,0.8,6.1c0.8,1.3,2,2.4,3.4,3c1.5,0.7,3.2,0.8,4.9,0.9c1.9,0,3.2-0.3,4.2-0.9    c1.4-0.8,2.4-2.3,3.2-4.5c1.1-3.6,0.6-7.7-1.2-11.1c-0.3-0.5-0.1-1.1,0.4-1.4c0.5-0.3,1.1-0.1,1.4,0.4c2.1,3.8,2.6,8.6,1.4,12.7    c-0.9,2.6-2.3,4.5-4,5.6C34.5,80,32.5,80.1,30.9,80.1z"/>
</g>
</g>
<g>
<path class="st6" d="M102.7,44.9l-35,0.5c-1.8,0-3.2,1.3-3.4,3.1L60,89.1c-0.2,2.1,1.4,3.8,3.4,3.8l43.9,1.9c2,0,3.6-1.8,3.4-3.8   l-4.6-43C106,46.3,104.5,44.9,102.7,44.9z"/>
<path class="st1" d="M108.6,94.3l-43.9-1.9c-2,0-3.6-1.7-3.4-3.8L65.6,48c0.1-1.1,0.7-2,1.5-2.5c-1.5,0.3-2.6,1.5-2.7,3L60,89.1   c-0.2,2.1,1.4,3.8,3.4,3.8l43.9,1.9c0.7,0,1.3-0.2,1.9-0.6C109,94.2,108.8,94.3,108.6,94.3z"/>
<g>
<path class="st2" d="M85.5,77.2c-2.7-0.1-4.8-0.5-6.6-1.3c-2.3-1-4.1-2.6-5.2-4.4c-1.3-2.2-1.6-5.1-1.1-8.8    c0.1-0.7,0.2-1.4,0.4-2.1c0.5-2.4,1-5.2,0.3-7.4c-0.2-0.5,0.1-1.1,0.6-1.3s1.1,0.1,1.3,0.6c0.9,2.7,0.3,5.9-0.2,8.4    c-0.1,0.7-0.3,1.4-0.4,2c-0.5,3.3-0.2,5.7,0.9,7.6c0.8,1.5,2.4,2.8,4.2,3.6c1.5,0.6,3.4,1,5.9,1.1c1.7,0,3.7-0.1,5.2-1.1    c2-1.2,3.6-3.2,4.3-5.4c1.4-4.3,1.4-11.4-1-15.4c-0.3-0.5-0.1-1.1,0.3-1.4c0.5-0.3,1.1-0.1,1.4,0.3c2.7,4.5,2.7,12.2,1.2,17    c-0.9,2.7-2.8,5.1-5.1,6.5C89.9,77,87.4,77.2,85.5,77.2z"/>
</g>
<circle class="st3" cx="74.7" cy="52.3" r="1.7"/>
<circle class="st3" cx="95.5" cy="52.3" r="1.7"/>
<g>
<path class="st4" d="M86,76.7c-2.7-0.1-4.8-0.5-6.6-1.3c-2.3-1-4.1-2.6-5.2-4.4c-1.3-2.2-1.6-5.1-1.1-8.8c0.1-0.7,0.2-1.4,0.4-2.1    c0.5-2.4,1-5.2,0.3-7.4c-0.2-0.5,0.1-1.1,0.6-1.3s1.1,0.1,1.3,0.6c0.9,2.7,0.3,5.9-0.2,8.4c-0.1,0.7-0.3,1.4-0.4,2    c-0.5,3.3-0.2,5.7,0.9,7.6c0.8,1.5,2.4,2.8,4.2,3.6c1.5,0.6,3.4,1,5.9,1.1c1.7,0,3.7-0.1,5.2-1.1c2-1.2,3.6-3.2,4.3-5.4    c1.4-4.3,1.4-11.4-1-15.4c-0.3-0.5-0.1-1.1,0.3-1.4c0.5-0.3,1.1-0.1,1.4,0.3c2.7,4.5,2.7,12.2,1.2,17c-0.9,2.7-2.8,5.1-5.1,6.5    C90.3,76.5,87.9,76.7,86,76.7z"/>
</g>
</g>
</svg>